<svg xmlns="http://www.w3.org/2000/svg" width="512" height="512" viewBox="0 0 512 512">
  <defs>
    <linearGradient id="bg" x1="0" y1="0" x2="1" y2="1">
      <stop offset="0" stop-color="#2a1a4a"/>
      <stop offset="0.55" stop-color="#171033"/>
      <stop offset="1" stop-color="#0e0a23"/>
    </linearGradient>
    <radialGradient id="glow" cx="0.5" cy="0.42" r="0.55">
      <stop offset="0" stop-color="#f3c761" stop-opacity="0.22"/>
      <stop offset="1" stop-color="#f3c761" stop-opacity="0"/>
    </radialGradient>
    <linearGradient id="gold" x1="0" y1="0" x2="0" y2="1">
      <stop offset="0" stop-color="#fde68a"/>
      <stop offset="0.5" stop-color="#f3c761"/>
      <stop offset="1" stop-color="#c9892f"/>
    </linearGradient>
    <linearGradient id="goldDeep" x1="0" y1="0" x2="0" y2="1">
      <stop offset="0" stop-color="#f0d77a"/>
      <stop offset="1" stop-color="#a86f1f"/>
    </linearGradient>
    <linearGradient id="shieldIn" x1="0" y1="0" x2="0" y2="1">
      <stop offset="0" stop-color="#3b2766"/>
      <stop offset="1" stop-color="#1c1240"/>
    </linearGradient>
  </defs>

  <!-- 배경 -->
  <rect width="512" height="512" fill="url(#bg)"/>
  <rect width="512" height="512" fill="url(#glow)"/>

  <!-- 은은한 별 -->
  <g fill="#fde68a">
    <circle cx="112" cy="118" r="4" opacity="0.55"/>
    <circle cx="404" cy="96" r="3" opacity="0.4"/>
    <circle cx="432" cy="316" r="4" opacity="0.45"/>
    <circle cx="84" cy="356" r="3" opacity="0.4"/>
    <path d="M388 172 l4.5 11 11 4.5 -11 4.5 -4.5 11 -4.5 -11 -11 -4.5 11 -4.5 z" opacity="0.7"/>
    <path d="M118 232 l3.6 8.8 8.8 3.6 -8.8 3.6 -3.6 8.8 -3.6 -8.8 -8.8 -3.6 8.8 -3.6 z" opacity="0.55"/>
  </g>

  <!-- 방패 -->
  <g transform="translate(0,42)">
    <path d="M256 128
             C 292 150 330 158 362 160
             C 362 246 344 330 256 384
             C 168 330 150 246 150 160
             C 182 158 220 150 256 128 Z"
          fill="url(#gold)"/>
    <path d="M256 148
             C 288 166 320 174 344 177
             C 343 250 327 318 256 364
             C 185 318 169 250 168 177
             C 192 174 224 166 256 148 Z"
          fill="url(#shieldIn)"/>
    <!-- 레벨업 화살표 -->
    <path d="M256 190 L 322 262 L 284 262 L 284 330 L 228 330 L 228 262 L 190 262 Z"
          fill="url(#goldDeep)"/>
  </g>

  <!-- 왕관 -->
  <g transform="translate(0,42)">
    <path d="M186 96 L 210 64 L 238 86 L 256 52 L 274 86 L 302 64 L 326 96 L 318 122 L 194 122 Z"
          fill="url(#gold)" stroke="#8a6512" stroke-width="6" stroke-linejoin="round"/>
    <circle cx="210" cy="60" r="10" fill="#fde68a" stroke="#8a6512" stroke-width="4"/>
    <circle cx="256" cy="46" r="11" fill="#fde68a" stroke="#8a6512" stroke-width="4"/>
    <circle cx="302" cy="60" r="10" fill="#fde68a" stroke="#8a6512" stroke-width="4"/>
    <rect x="194" y="110" width="124" height="14" rx="7" fill="url(#goldDeep)"/>
  </g>
</svg>
